<svg width="800" height="400" xmlns="http://www.w3.org/2000/svg">
  <g>
    <!-- Gazelle silhouette -->
    <path fill="#f1f1f1" d="m177.5,280.5c-3,-4 -3,-12 -5,-17c-2,-5 -4,-9 -6,-14c-2,-5 -2,-11 -7,-14c-5,-3 -7,3 -5,7c2,4 5,9 1,12c-4,3 -7,1 -9,-3c-2,-4 -3,-10 -7,-11c-4,-1 -2.76,1.24 -2,4c0.76,2.76 3,8 -1,9c-4,1 -4,-5 -5,-8c-1,-3 -2,-7 -6,-7c-4,0 -3,4 -2,7c1,3 3,7 0,9c-3,2 -5,0 -6,-3c-1,-3 -2,-8 -5,-8c-3,0 -3,3 -2,6c1,3 1,6 -2,7c-3,1 -3,-2 -3,-5c0,-3 -1,-5 -4,-5c-3,0 -3,3 -2,5c1,2 -5,3 -3,7c2,4 17,18 17,18c0,0 11,13 24,13c13,0 23,-8 35,-8c12,0 17,4 28,2c11,-2 23,-7 29,-15c6,-8 -6,-24 -6,-24l-14,-6l-10,8l-3,12l-17,16l-17,-1z" />
    
    <!-- Text SCoDEPPC -->
    <text x="250" y="240" font-family="Arial" font-size="95" font-weight="bold" fill="#f1f1f1">SCoDEPPC</text>
    
    <!-- Circle with animals -->
    <g transform="translate(650, 230)">
      <circle cx="0" cy="0" r="80" stroke="#f1f1f1" stroke-width="5" fill="none" />
      
      <!-- Gazelle silhouette inside circle -->
      <path fill="#f1f1f1" d="M50,-20 Q53,-10 50,0 Q48,5 45,8 Q40,12 35,10 Q30,8 28,5 Q25,0 30,-5 Q35,-8 38,-5 Q40,-2 38,0 Q36,2 33,0 M35,0 Q30,5 25,8 Q20,10 15,8 Q10,5 12,0 Q15,-5 20,-8" />
      
      <!-- Rabbit silhouette -->
      <path fill="#f1f1f1" d="M-30,-30 Q-25,-35 -20,-30 Q-18,-25 -20,-20 Q-25,-15 -30,-18 Q-35,-20 -35,-25 Q-33,-30 -30,-30 M-27,-30 L-22,-50 L-20,-30" />
      
      <!-- Bird silhouette -->
      <path fill="#f1f1f1" d="M15,-40 Q20,-38 20,-35 Q18,-30 15,-28 Q10,-25 5,-30 Q0,-35 15,-40" />
      
      <!-- Pig silhouette -->
      <path fill="#f1f1f1" d="M-10,20 Q-5,15 0,20 Q5,25 0,30 Q-5,35 -10,30 Q-15,25 -10,20 M-5,30 L-5,40 M0,30 L0,40" />
      
      <!-- Duck silhouette -->
      <path fill="#f1f1f1" d="M40,30 Q45,25 50,30 Q55,35 50,40 Q45,38 40,35 L35,40 Q30,42 25,40 Q20,35 25,30 Q30,25 35,30 L40,28 Z" />
    </g>
  </g>
</svg>