<svg width="800" height="400" xmlns="http://www.w3.org/2000/svg" viewBox="0 0 800 400">
  <rect width="800" height="400" fill="#004d33"/>
  
  <!-- Gazelle à gauche -->
  <path fill="#f1f1f1" d="M200,200 c-10,0 -20,10 -20,20 c0,10 5,15 10,20 c5,5 10,10 15,0 c5,-10 -5,-10 -10,-15 c-5,-5 0,-10 5,-10 c5,0 10,5 10,10 c0,5 5,10 10,5 c5,-5 10,-10 15,-15 c5,-5 10,-5 15,-10 c5,-5 0,-10 -5,-10 c-5,0 -10,5 -15,5 c-5,0 -5,-5 -5,-10 c0,-5 5,-10 10,-15 c5,-5 10,-5 15,0 c5,5 10,10 5,15 c-5,5 -10,5 -5,10 c5,5 10,0 15,0 c5,0 10,5 5,10"/>
  
  <!-- Texte SCoDEPPC -->
  <text x="270" y="225" font-family="Arial" font-size="65" font-weight="bold" fill="#f1f1f1">SCoDEPPC</text>
  
  <!-- Cercle avec animaux -->
  <g transform="translate(690, 200)">
    <circle cx="0" cy="0" r="70" stroke="#f1f1f1" stroke-width="3" fill="none" />
    
    <!-- Lapin -->
    <path fill="#f1f1f1" d="M-35,-10 c-2,-2 -3,-5 -1,-7 c2,-2 5,-1 7,1 c2,2 1,5 -1,7 c-2,2 -3,1 -5,-1 z"/>
    
    <!-- Antilope/Gazelle dans le cercle -->
    <path fill="#f1f1f1" d="M25,-20 c1,-2 3,-3 5,-1 c2,2 2,4 0,6 c-2,2 -4,2 -6,0 c-2,-2 -1,-3 1,-5 z"/>
    
    <!-- Cochon/Sanglier -->
    <path fill="#f1f1f1" d="M-10,30 c-2,-1 -2,-3 0,-5 c2,-2 5,-2 7,0 c2,2 2,4 0,6 c-2,2 -5,1 -7,-1 z"/>
    
    <!-- Canard/Oiseau -->
    <path fill="#f1f1f1" d="M35,25 c1,-2 3,-3 5,-1 c2,2 2,4 0,6 c-2,2 -4,1 -5,-1 c-1,-2 -1,-2 0,-4 z"/>
  </g>
</svg>